<?xml version="1.0" encoding="UTF-8" standalone="no"?>
<svg
   height="48px"
   viewBox="0 -960 960 960"
   width="48px"
   fill="#e3e3e3"
   version="1.1"
   id="svg1"
   sodipodi:docname="go_action_destroy.svg"
   inkscape:version="1.4.3 (0d15f75042, 2025-12-25)"
   xmlns:inkscape="http://www.inkscape.org/namespaces/inkscape"
   xmlns:sodipodi="http://sodipodi.sourceforge.net/DTD/sodipodi-0.dtd"
   xmlns="http://www.w3.org/2000/svg"
   xmlns:svg="http://www.w3.org/2000/svg">
  <defs
     id="defs1">
    <inkscape:path-effect
       effect="fillet_chamfer"
       id="path-effect19"
       is_visible="true"
       lpeversion="1"
       nodesatellites_param="F,0,0,1,0,26.666667,0,1 @ F,0,0,1,0,26.666667,0,1 @ F,0,0,1,0,26.666667,0,1 @ F,0,0,1,0,26.666667,0,1 @ F,0,0,1,0,26.666667,0,1 @ F,0,0,1,0,26.666667,0,1 @ F,0,0,1,0,26.666667,0,1 @ F,0,0,1,0,26.666667,0,1"
       radius="1"
       unit="pt"
       method="auto"
       mode="F"
       chamfer_steps="1"
       flexible="false"
       use_knot_distance="true"
       apply_no_radius="true"
       apply_with_radius="true"
       only_selected="false"
       hide_knots="false" />
    <inkscape:path-effect
       effect="fillet_chamfer"
       id="path-effect2"
       is_visible="true"
       lpeversion="1"
       nodesatellites_param="F,0,0,1,0,26.666667,0,1 @ F,0,0,1,0,26.666667,0,1 @ F,0,0,1,0,26.666667,0,1 @ F,0,0,1,0,26.666667,0,1"
       radius="1"
       unit="pt"
       method="auto"
       mode="F"
       chamfer_steps="1"
       flexible="false"
       use_knot_distance="true"
       apply_no_radius="true"
       apply_with_radius="true"
       only_selected="false"
       hide_knots="false" />
    <inkscape:path-effect
       effect="fillet_chamfer"
       id="path-effect1"
       is_visible="true"
       lpeversion="1"
       nodesatellites_param="F,1,0,1,0,10,0,1 @ F,1,0,1,0,10,0,1 @ F,1,0,1,0,10,0,1 @ F,1,0,1,0,10,0,1 @ F,1,0,1,0,10,0,1 @ F,1,0,1,0,10,0,1 | F,1,0,1,0,10,0,1 @ F,1,0,1,0,10,0,1 @ F,1,0,1,0,10,0,1 @ F,1,0,1,0,10,0,1 @ F,1,0,1,0,10,0,1 @ F,1,0,1,0,10,0,1 @ F,1,0,1,0,10,0,1 @ F,1,0,1,0,10,0,1 | "
       radius="11"
       unit="px"
       method="auto"
       mode="F"
       chamfer_steps="1"
       flexible="true"
       use_knot_distance="true"
       apply_no_radius="true"
       apply_with_radius="true"
       only_selected="false"
       hide_knots="false" />
    <inkscape:path-effect
       effect="fill_between_many"
       method="originald"
       linkedpaths="#path1,0,1|"
       id="path-effect18" />
  </defs>
  <sodipodi:namedview
     id="namedview1"
     pagecolor="#505050"
     bordercolor="#ffffff"
     borderopacity="1"
     inkscape:showpageshadow="0"
     inkscape:pageopacity="0"
     inkscape:pagecheckerboard="1"
     inkscape:deskcolor="#505050"
     inkscape:zoom="5.4874433"
     inkscape:cx="4.5558557"
     inkscape:cy="2.2779279"
     inkscape:window-width="1600"
     inkscape:window-height="996"
     inkscape:window-x="0"
     inkscape:window-y="0"
     inkscape:window-maximized="1"
     inkscape:current-layer="layer1" />
  <g
     inkscape:groupmode="layer"
     id="layer1"
     inkscape:label="Layer 1">
    <path
       d="M 603.90625,-324.6875 327.14844,-601.44531 175.19531,-381.91406 A 13.972079,13.972079 0 0 0 186.67969,-360 h 146.64062 a 23.127878,23.127878 0 0 1 22.89063,26.40625 l -32.42188,227.1875 A 23.127878,23.127878 0 0 0 346.67969,-80 h 26.64062 a 56.934444,56.934444 0 0 0 43.75,-20.46875 z"
       style="display:inline;fill:#b380ff"
       id="path25" />
    <path
       d="m 546.67969,-880 a 50.895156,50.895156 0 0 0 -41.875,21.91406 l -137.22657,198.24219 281.25,281.25 134.10157,-160.9375 A 12.489999,12.489999 0 0 0 773.32031,-560 H 586.67969 a 23.540859,23.540859 0 0 1 -23.35938,-26.44531 l 33.35938,-267.10938 A 23.540859,23.540859 0 0 0 573.32031,-880 Z"
       style="display:inline;fill:#b380ff"
       id="path22" />
    <path
       d="m 327.14844,-601.44531 40.42968,-58.39844 -187.89062,-187.89062 a 32.995428,32.995428 0 0 0 -46.67969,0 l -2.73437,2.77343 a 32.995428,32.995428 0 0 0 0,46.64063 z"
       style="display:inline;fill:#b380ff;stroke-width:1202.19"
       id="path26" />
    <path
       d="m 648.82812,-378.59375 -281.25,-281.25 -40.42968,58.39844 276.75781,276.75781 z"
       style="display:none;fill:#b380ff;stroke-width:1202.19"
       id="path24" />
    <path
       d="m 648.82812,-378.59375 -44.92187,53.90625 158.90625,158.94531 a 32.995428,32.995428 0 0 0 46.67969,0 l 2.73437,-2.77343 a 32.995428,32.995428 0 0 0 0,-46.67969 z"
       style="display:inline;fill:#b380ff;stroke-width:1202.19"
       id="path23" />
  </g>
</svg>
