<?xml version="1.0" encoding="UTF-8" standalone="no"?>
<svg
   height="48px"
   viewBox="0 -960 960 960"
   width="48px"
   fill="#e3e3e3"
   version="1.1"
   id="svg1"
   sodipodi:docname="go_action.svg"
   inkscape:version="1.4.3 (0d15f75042, 2025-12-25)"
   xmlns:inkscape="http://www.inkscape.org/namespaces/inkscape"
   xmlns:sodipodi="http://sodipodi.sourceforge.net/DTD/sodipodi-0.dtd"
   xmlns="http://www.w3.org/2000/svg"
   xmlns:svg="http://www.w3.org/2000/svg">
  <defs
     id="defs1">
    <inkscape:path-effect
       effect="fillet_chamfer"
       id="path-effect1"
       is_visible="true"
       lpeversion="1"
       nodesatellites_param="F,1,0,1,0,0.11,0,1 @ F,1,0,1,0,0.11,0,1 @ F,1,0,1,0,0.11,0,1 @ F,1,0,1,0,0.11,0,1 @ F,1,0,1,0,0.11,0,1 @ F,1,0,1,0,0.11,0,1 | F,1,0,1,0,0.11,0,1 @ F,1,0,1,0,0.11,0,1 @ F,1,0,1,0,0.11,0,1 @ F,1,0,1,0,0.11,0,1 @ F,1,0,1,0,0.11,0,1 @ F,1,0,1,0,0.11,0,1 @ F,1,0,1,0,0.11,0,1 @ F,1,0,1,0,0.11,0,1 | "
       radius="10"
       unit="px"
       method="auto"
       mode="F"
       chamfer_steps="1"
       flexible="true"
       use_knot_distance="true"
       apply_no_radius="true"
       apply_with_radius="true"
       only_selected="false"
       hide_knots="false" />
  </defs>
  <sodipodi:namedview
     id="namedview1"
     pagecolor="#505050"
     bordercolor="#ffffff"
     borderopacity="1"
     inkscape:showpageshadow="0"
     inkscape:pageopacity="0"
     inkscape:pagecheckerboard="1"
     inkscape:deskcolor="#505050"
     inkscape:zoom="5.4874433"
     inkscape:cx="23.599333"
     inkscape:cy="8.1094233"
     inkscape:window-width="1600"
     inkscape:window-height="996"
     inkscape:window-x="0"
     inkscape:window-y="0"
     inkscape:window-maximized="1"
     inkscape:current-layer="svg1" />
  <path
     d="M 423.69,-201.85 659.32882,-484.7855 A 9.2773695,9.2773695 64.894372 0 0 652.2,-500 H 523.70825 A 27.967213,27.967213 48.587162 0 1 495.96,-531.46 l 25.92763,-205.9806 A 11.967169,11.967169 20.914378 0 0 500.17,-745.74 L 284.63252,-433.93479 A 8.8834369,8.8834369 62.327216 0 0 291.94,-420 h 108.73185 a 24.609791,24.609791 49.017855 0 1 24.36815,28.05 l -25.33619,179.46466 A 13.63944,13.63944 23.912227 0 0 423.69,-201.85 Z m -99.29,91.05 32.48873,-227.42111 A 19.080499,19.080499 49.065051 0 0 338,-360 H 229.57011 A 36.451463,36.451463 62.347577 0 1 199.6,-417.2 L 514.99095,-872.76471 A 16.795401,16.795401 152.34758 0 1 528.8,-880 h 35.72607 A 31.315758,31.315758 48.562508 0 1 595.6,-844.8 l -32.32548,258.60386 A 23.305451,23.305451 48.562508 0 0 586.4,-560 H 731.2698 A 32.191502,32.191502 64.902786 0 1 756,-507.2 L 405.63362,-86.760347 A 18.788366,18.788366 154.90279 0 1 391.2,-80 H 351.1127 A 26.9839,26.9839 49.065051 0 1 324.4,-110.8 Z"
     id="path1"
     style="fill:#b380ff"
     inkscape:path-effect="#path-effect1"
     inkscape:original-d="M 393,-165 672,-500 H 492 l 36,-286 -253,366 h 154 z m -73,85 40,-280 H 160 l 360,-520 h 80 l -40,320 H 800 L 400,-80 Z m 154,-396 z" />
</svg>
