<?xml version="1.0" encoding="UTF-8" standalone="no"?>
<svg
   height="48px"
   viewBox="0 -960 960 960"
   width="48px"
   fill="#e3e3e3"
   version="1.1"
   id="svg1"
   sodipodi:docname="go_action_debug.svg"
   inkscape:version="1.4.3 (0d15f75042, 2025-12-25)"
   xmlns:inkscape="http://www.inkscape.org/namespaces/inkscape"
   xmlns:sodipodi="http://sodipodi.sourceforge.net/DTD/sodipodi-0.dtd"
   xmlns="http://www.w3.org/2000/svg"
   xmlns:svg="http://www.w3.org/2000/svg">
  <defs
     id="defs1">
    <inkscape:path-effect
       effect="fill_between_many"
       id="path-effect2"
       is_visible="true"
       lpeversion="1.2"
       linkedpaths=""
       method="d"
       join="true"
       close="true"
       autoreverse="true" />
    <inkscape:path-effect
       effect="fillet_chamfer"
       id="path-effect1"
       is_visible="true"
       lpeversion="1"
       nodesatellites_param="F,1,0,1,0,0.11,0,1 @ F,1,0,1,0,0.11,0,1 @ F,1,0,1,0,0.11,0,1 @ F,1,0,1,0,0.11,0,1 @ F,1,0,1,0,0.11,0,1 @ F,1,0,1,0,0.11,0,1 | F,1,0,1,0,0.11,0,1 @ F,1,0,1,0,0.11,0,1 @ F,1,0,1,0,0.11,0,1 @ F,1,0,1,0,0.11,0,1 @ F,1,0,1,0,0.11,0,1 @ F,1,0,1,0,0.11,0,1 @ F,1,0,1,0,0.11,0,1 @ F,1,0,1,0,0.11,0,1 | "
       radius="10"
       unit="px"
       method="auto"
       mode="F"
       chamfer_steps="1"
       flexible="true"
       use_knot_distance="true"
       apply_no_radius="true"
       apply_with_radius="true"
       only_selected="false"
       hide_knots="false" />
  </defs>
  <sodipodi:namedview
     id="namedview1"
     pagecolor="#505050"
     bordercolor="#ffffff"
     borderopacity="1"
     inkscape:showpageshadow="0"
     inkscape:pageopacity="0"
     inkscape:pagecheckerboard="1"
     inkscape:deskcolor="#505050"
     inkscape:zoom="5.4874433"
     inkscape:cx="29.795296"
     inkscape:cy="50.752233"
     inkscape:window-width="1600"
     inkscape:window-height="996"
     inkscape:window-x="0"
     inkscape:window-y="0"
     inkscape:window-maximized="1"
     inkscape:current-layer="layer1" />
  <g
     inkscape:groupmode="layer"
     id="layer1"
     inkscape:label="Layer 1">
    <path
       id="path1-2"
       style="display:inline;fill:#b380ff;fill-opacity:1;stroke-width:1.31507"
       d="M 297.1875 -960 L 241.95312 -903.4375 L 328.75 -817.96875 C 312.09247 -799.5578 299.16642 -778.74069 289.96094 -755.50781 C 280.75546 -732.27493 276.17187 -708.37609 276.17188 -683.82812 C 276.17188 -676.81444 276.58423 -670.01284 277.46094 -663.4375 C 278.33765 -656.86215 279.65282 -650.09964 281.40625 -643.08594 C 270.8857 -631.68868 260.81569 -620.03875 251.17188 -608.20312 C 241.52804 -596.36752 232.77323 -583.44146 224.88281 -569.41406 L 94.6875 -645.70312 L 55.234375 -578.63281 L 193.32031 -497.10938 C 188.93676 -482.20526 184.99123 -467.28692 181.48438 -452.38281 C 177.97753 -437.47871 175.34717 -422.56037 173.59375 -407.65625 L 13.164062 -407.65625 L 13.164062 -328.75 L 173.59375 -328.75 C 175.34717 -313.84589 177.97753 -298.96661 181.48438 -284.0625 C 184.99123 -269.15839 188.93676 -254.24005 193.32031 -239.33594 L 55.234375 -159.14062 L 94.6875 -92.070312 L 226.21094 -167.03125 C 254.26573 -117.93535 290.86496 -77.802949 336.01562 -46.679688 C 381.16632 -15.556377 431.32962 -2.2737368e-13 486.5625 0 C 541.79537 0 591.99775 -15.556376 637.14844 -46.679688 C 682.29913 -77.802949 718.89833 -117.93535 746.95312 -167.03125 L 878.47656 -90.742188 L 917.92969 -157.8125 L 779.84375 -238.04688 C 785.10404 -252.95098 789.27528 -268.05598 792.34375 -283.39844 C 795.41227 -298.74091 797.81691 -313.84589 799.57031 -328.75 L 960 -328.75 L 960 -407.65625 L 799.57031 -407.65625 C 797.81691 -423.43707 795.41227 -438.80682 792.34375 -453.71094 C 789.27528 -468.61504 785.10404 -483.49433 779.84375 -498.39844 L 917.92969 -577.30469 L 878.47656 -644.375 L 746.95312 -570.74219 C 739.0627 -584.76959 730.5336 -597.69564 721.32812 -609.53125 C 712.12266 -621.36687 702.23932 -632.97774 691.71875 -644.375 C 693.4722 -651.38869 694.56167 -657.96457 695 -664.10156 C 695.43837 -670.23854 695.66406 -676.81444 695.66406 -683.82812 C 695.66406 -708.37608 691.08046 -732.04924 681.875 -754.84375 C 672.66949 -777.63828 660.15583 -798.22967 644.375 -816.64062 L 731.17188 -903.4375 L 675.9375 -960 L 582.57812 -867.92969 C 567.67402 -876.6968 552.34332 -883.27269 536.5625 -887.65625 C 520.78167 -892.03982 504.09674 -894.25781 486.5625 -894.25781 C 469.02825 -894.25781 452.38239 -892.03982 436.60156 -887.65625 C 420.82074 -883.27269 405.49004 -876.6968 390.58594 -867.92969 L 297.1875 -960 z M 486.5625 -815.35156 C 516.37071 -815.35156 543.9894 -803.92733 569.41406 -781.13281 C 594.83873 -758.33829 610.20848 -732.48619 615.46875 -703.55469 C 595.30436 -714.07523 574.4482 -722.192 552.96875 -727.89062 C 531.4893 -733.58928 509.35702 -736.44531 486.5625 -736.44531 C 463.76797 -736.44531 441.40999 -733.58928 419.49219 -727.89062 C 397.57437 -722.192 376.53157 -713.66288 356.36719 -702.26562 C 361.62747 -732.07385 377.22292 -758.33829 403.08594 -781.13281 C 428.94895 -803.92733 456.75428 -815.35156 486.5625 -815.35156 z M 511.67969 -646.01562 L 535.82031 -646.01562 A 21.170972 21.170972 0 0 1 556.83594 -622.1875 L 534.96094 -447.38281 A 15.755615 15.755615 0 0 0 550.58594 -429.6875 L 648.55469 -429.6875 A 21.763017 21.763017 0 0 1 665.27344 -393.98438 L 428.39844 -109.72656 A 12.701847 12.701847 0 0 1 418.63281 -105.15625 L 391.52344 -105.15625 A 18.242426 18.242426 0 0 1 373.47656 -125.97656 L 395.42969 -279.72656 A 12.899343 12.899343 0 0 0 382.65625 -294.45312 L 309.375 -294.45312 A 24.642957 24.642957 0 0 1 289.10156 -333.125 L 502.34375 -641.09375 A 11.354506 11.354506 0 0 1 511.67969 -646.01562 z M 499.0625 -558.71094 A 8.0903871 8.0903871 0 0 0 492.30469 -555.23438 L 346.60156 -344.45312 A 6.0056343 6.0056343 0 0 0 351.52344 -335.03906 L 425.03906 -335.03906 A 16.637412 16.637412 0 0 1 441.52344 -316.05469 L 424.375 -194.72656 A 9.2209228 9.2209228 0 0 0 440.58594 -187.53906 L 599.92188 -378.82812 A 6.2719518 6.2719518 0 0 0 595.07812 -389.10156 L 508.20312 -389.10156 A 18.907193 18.907193 0 0 1 489.45312 -410.39062 L 506.99219 -549.60938 A 8.0903871 8.0903871 0 0 0 499.0625 -558.71094 z " />
  </g>
</svg>
