<?xml version="1.0" encoding="UTF-8" standalone="no"?>
<svg
   height="48px"
   viewBox="0 -960 960 960"
   width="48px"
   fill="#e3e3e3"
   version="1.1"
   id="svg1"
   sodipodi:docname="go_action_parallel_sequence.svg"
   inkscape:version="1.4.3 (0d15f75042, 2025-12-25)"
   xmlns:inkscape="http://www.inkscape.org/namespaces/inkscape"
   xmlns:sodipodi="http://sodipodi.sourceforge.net/DTD/sodipodi-0.dtd"
   xmlns="http://www.w3.org/2000/svg"
   xmlns:svg="http://www.w3.org/2000/svg">
  <defs
     id="defs1">
    <inkscape:path-effect
       effect="tiling"
       id="path-effect12"
       is_visible="true"
       lpeversion="1.3.1"
       unit="px"
       seed="1;1"
       lpesatellites=""
       num_rows="1"
       num_cols="2"
       gapx="0"
       gapy="0"
       offset="0"
       offset_type="false"
       scale="0"
       rotate="0"
       mirrorrowsx="false"
       mirrorrowsy="false"
       mirrorcolsx="false"
       mirrorcolsy="false"
       mirrortrans="false"
       shrink_interp="false"
       split_items="false"
       link_styles="false"
       interpolate_scalex="false"
       interpolate_scaley="true"
       interpolate_rotatex="false"
       interpolate_rotatey="true"
       random_scale="false"
       random_rotate="false"
       random_gap_y="false"
       random_gap_x="false"
       transformorigin="" />
    <inkscape:path-effect
       effect="fill_between_many"
       id="path-effect27"
       is_visible="true"
       lpeversion="1.2"
       linkedpaths=""
       method="d"
       join="true"
       close="true"
       autoreverse="false" />
    <inkscape:path-effect
       effect="fill_between_many"
       id="path-effect26"
       is_visible="true"
       lpeversion="1.2"
       linkedpaths=""
       method="bsplinespiro"
       join="true"
       close="true"
       autoreverse="true" />
    <inkscape:path-effect
       effect="offset"
       id="path-effect25"
       is_visible="true"
       lpeversion="1.3"
       linejoin_type="miter"
       unit="px"
       offset="0.666142"
       miter_limit="4"
       attempt_force_join="true"
       update_on_knot_move="true" />
    <inkscape:path-effect
       effect="interpolate"
       id="path-effect24"
       is_visible="true"
       lpeversion="1"
       trajectory="M 473.5,-475.5 480,-480"
       equidistant_spacing="true"
       steps="3" />
    <inkscape:path-effect
       effect="knot"
       id="path-effect23"
       is_visible="true"
       lpeversion="1"
       switcher_size="16.1"
       interruption_width="3.6"
       prop_to_stroke_width="true"
       add_stroke_width="inkscape_1.0_and_up"
       both="true"
       inverse_width="false"
       add_other_stroke_width="inkscape_1.0_and_up"
       crossing_points_vector="" />
    <inkscape:path-effect
       effect="offset"
       id="path-effect22"
       is_visible="true"
       lpeversion="1.3"
       linejoin_type="miter"
       unit="px"
       offset="-1.433858"
       miter_limit="3.9"
       attempt_force_join="false"
       update_on_knot_move="true" />
    <inkscape:path-effect
       effect="tiling"
       id="path-effect21"
       is_visible="true"
       lpeversion="1.3.1"
       unit="px"
       seed="1;1"
       lpesatellites=""
       num_rows="3"
       num_cols="3"
       gapx="0"
       gapy="0"
       offset="80"
       offset_type="false"
       scale="0"
       rotate="0"
       mirrorrowsx="false"
       mirrorrowsy="false"
       mirrorcolsx="false"
       mirrorcolsy="false"
       mirrortrans="false"
       shrink_interp="false"
       split_items="false"
       link_styles="false"
       interpolate_scalex="false"
       interpolate_scaley="true"
       interpolate_rotatex="false"
       interpolate_rotatey="true"
       random_scale="false"
       random_rotate="false"
       random_gap_y="false"
       random_gap_x="false"
       transformorigin="matrix(0.56751678,0,0,0.56751678,-109.59807,-460.58524)" />
    <inkscape:path-effect
       effect="fillet_chamfer"
       id="path-effect20"
       is_visible="true"
       lpeversion="1"
       nodesatellites_param="F,0,0,1,0,10,0,1 @ F,0,0,1,0,10,0,1 @ F,0,0,1,0,10,0,1 @ F,0,0,1,0,10,0,1 @ F,0,0,1,0,10,0,1 @ F,0,0,1,0,10,0,1 @ F,0,0,1,0,10,0,1 @ F,0,0,1,0,10,0,1 @ F,0,0,1,0,10,0,1 @ F,0,0,1,0,10,0,1 @ F,0,0,1,0,10,0,1"
       radius="0.5"
       unit="px"
       method="auto"
       mode="F"
       chamfer_steps="2"
       flexible="false"
       use_knot_distance="true"
       apply_no_radius="true"
       apply_with_radius="true"
       only_selected="false"
       hide_knots="false" />
    <inkscape:path-effect
       effect="tiling"
       id="path-effect19"
       is_visible="false"
       lpeversion="1.3.1"
       unit="px"
       seed="1;1"
       lpesatellites=""
       num_rows="3"
       num_cols="1"
       gapx="0"
       gapy="0"
       offset="0"
       offset_type="false"
       scale="0"
       rotate="0"
       mirrorrowsx="false"
       mirrorrowsy="false"
       mirrorcolsx="false"
       mirrorcolsy="false"
       mirrortrans="false"
       shrink_interp="false"
       split_items="false"
       link_styles="false"
       interpolate_scalex="false"
       interpolate_scaley="false"
       interpolate_rotatex="false"
       interpolate_rotatey="true"
       random_scale="false"
       random_rotate="false"
       random_gap_y="false"
       random_gap_x="false"
       transformorigin="matrix(0.526191,0,0,0.526191,539.0472,42.09528)" />
    <inkscape:path-effect
       effect="vonkoch"
       id="path-effect18"
       is_visible="true"
       lpeversion="1"
       ref_path="M 160,-480 H 800"
       generator="m 160,-80 h 213.33333 m 213.33334,0 H 800"
       similar_only="false"
       nbgenerations="0"
       drawall="true"
       maxComplexity="1000" />
    <inkscape:path-effect
       effect="tiling"
       id="path-effect11"
       is_visible="true"
       lpeversion="1.3.1"
       unit="px"
       seed="1;1644450110"
       lpesatellites=""
       num_rows="2"
       num_cols="1"
       gapx="0"
       gapy="0"
       offset="0"
       offset_type="false"
       scale="-15"
       rotate="0"
       mirrorrowsx="true"
       mirrorrowsy="true"
       mirrorcolsx="true"
       mirrorcolsy="true"
       mirrortrans="false"
       shrink_interp="false"
       split_items="false"
       link_styles="true"
       interpolate_scalex="true"
       interpolate_scaley="true"
       interpolate_rotatex="false"
       interpolate_rotatey="true"
       random_scale="false"
       random_rotate="false"
       random_gap_y="false"
       random_gap_x="false"
       transformorigin="matrix(0.526191,0,0,0.526191,226.61809,-227.42832)" />
    <inkscape:path-effect
       effect="vonkoch"
       id="path-effect10"
       is_visible="true"
       lpeversion="1"
       ref_path="m -430.67648,-1392.2163 h 640"
       generator="m -430.67648,-1392.2163 h 640"
       similar_only="true"
       nbgenerations="1"
       drawall="true"
       maxComplexity="1000" />
    <inkscape:path-effect
       effect="knot"
       id="path-effect9"
       is_visible="true"
       lpeversion="1"
       switcher_size="15.3"
       interruption_width="0.1"
       prop_to_stroke_width="true"
       add_stroke_width="inkscape_1.0_and_up"
       both="false"
       inverse_width="false"
       add_other_stroke_width="inkscape_1.0_and_up"
       crossing_points_vector="" />
    <inkscape:path-effect
       effect="fill_between_many"
       id="path-effect8"
       is_visible="true"
       lpeversion="1.2"
       linkedpaths="#path1,1,1"
       method="originald"
       join="true"
       close="false"
       autoreverse="false" />
    <inkscape:path-effect
       effect="fill_between_many"
       id="path-effect7"
       is_visible="true"
       lpeversion="1.2"
       linkedpaths="#path1,0,0|#path1,0,1"
       method="originald"
       join="true"
       close="true"
       autoreverse="true" />
    <inkscape:path-effect
       effect="offset"
       id="path-effect6"
       is_visible="true"
       lpeversion="1.3"
       linejoin_type="miter"
       unit="px"
       offset="0.733858"
       miter_limit="4"
       attempt_force_join="false"
       update_on_knot_move="true" />
    <inkscape:path-effect
       effect="fill_between_many"
       id="path-effect5"
       is_visible="true"
       lpeversion="1.2"
       linkedpaths=""
       method="originald"
       join="true"
       close="true"
       autoreverse="true" />
    <inkscape:path-effect
       effect="fillet_chamfer"
       id="path-effect3"
       is_visible="true"
       lpeversion="1"
       nodesatellites_param="F,1,0,1,0,0.11,0,1 @ F,1,0,1,0,0.11,0,1 @ F,1,0,1,0,0.11,0,1 @ F,1,0,1,0,0.11,0,1 @ F,1,0,1,0,0.11,0,1 @ F,1,0,1,0,0.11,0,1 | F,1,0,1,0,0.11,0,1 @ F,1,0,1,0,0.11,0,1 @ F,1,0,1,0,0.11,0,1 @ F,1,0,1,0,0.11,0,1 @ F,1,0,1,0,0.11,0,1 @ F,1,0,1,0,0.11,0,1 @ F,1,0,1,0,0.11,0,1 @ F,1,0,1,0,0.11,0,1 | "
       radius="10"
       unit="px"
       method="auto"
       mode="F"
       chamfer_steps="1"
       flexible="true"
       use_knot_distance="true"
       apply_no_radius="true"
       apply_with_radius="true"
       only_selected="false"
       hide_knots="false" />
    <inkscape:path-effect
       effect="fillet_chamfer"
       id="path-effect1"
       is_visible="true"
       lpeversion="1"
       nodesatellites_param="F,1,0,1,0,0.1,0,1 @ F,1,0,1,0,0.1,0,1 @ F,1,0,1,0,0.1,0,1 @ F,1,0,1,0,0.1,0,1 @ F,1,0,1,0,0.1,0,1 @ F,1,0,1,0,0.1,0,1 | F,1,0,1,0,0.1,0,1 @ F,1,0,1,0,0.1,0,1 @ F,1,0,1,0,0.1,0,1 @ F,1,0,1,0,0.1,0,1 @ F,1,0,1,0,0.1,0,1 @ F,1,0,1,0,0.1,0,1 @ F,1,0,1,0,0.1,0,1 @ F,1,0,1,0,0.1,0,1 | "
       radius="10"
       unit="px"
       method="auto"
       mode="F"
       chamfer_steps="1"
       flexible="true"
       use_knot_distance="true"
       apply_no_radius="true"
       apply_with_radius="true"
       only_selected="false"
       hide_knots="false" />
    <inkscape:path-effect
       effect="fill_between_many"
       method="originald"
       linkedpaths="#path1-6,0,1|"
       id="path-effect28" />
    <inkscape:path-effect
       effect="fill_between_many"
       method="originald"
       linkedpaths="#path1-6,0,1|"
       id="path-effect2" />
    <inkscape:path-effect
       effect="fill_between_many"
       method="originald"
       linkedpaths="#path1,0,1|"
       id="path-effect4" />
  </defs>
  <sodipodi:namedview
     id="namedview1"
     pagecolor="#505050"
     bordercolor="#ffffff"
     borderopacity="1"
     inkscape:showpageshadow="0"
     inkscape:pageopacity="0"
     inkscape:pagecheckerboard="1"
     inkscape:deskcolor="#505050"
     inkscape:zoom="5.4874433"
     inkscape:cx="33.986684"
     inkscape:cy="38.542539"
     inkscape:window-width="1600"
     inkscape:window-height="996"
     inkscape:window-x="0"
     inkscape:window-y="0"
     inkscape:window-maximized="1"
     inkscape:current-layer="layer1" />
  <g
     inkscape:groupmode="layer"
     id="layer1"
     inkscape:label="Layer 1">
    <path
       d="m 396.5625,-406.44531 h -15.19531 c -9.79026,-1.4e-4 -19.29447,-0.67124 -28.51563,-1.99219 l -9.80469,78.04688 c -1.38448,11.03358 7.20022,20.8046 18.32032,20.82031 h 96.875 c 0.079,-0.002 0.15533,-0.002 0.23437,0 5.10361,0.17276 7.80098,6.15568 4.53125,10.07812 L 288.67187,-90.195312 c -5.82087,6.964725 -17.12848,1.917421 -15.85937,-7.070313 L 291.95312,-232.8125 c 1.39206,-9.80606 -6.22843,-18.56084 -16.13281,-18.55469 h -82.10937 c -4.74147,0.008 -7.53834,-5.31736 -4.84375,-9.21875 l 33.90625,-48.98437 78.98437,-114.29688 c -12.97564,-6.27203 -25.20152,-14.2497 -36.71875,-23.90625 L 172.57812,-314.25781 125,-245.54687 c -11.08963,16.00354 0.41251,37.88035 19.88281,37.85156 h 84.92188 c 7.68029,-0.004 13.582,6.81036 12.5,14.41406 L 218.16406,-24.375 c -1.55243,10.767465 6.77746,20.4023925 17.65625,20.390625 h 31.83594 c 3.69076,0.00194 7.16862,-1.6176861 9.53125,-4.453125 l 250.9375,-301.13281 7.26562,-8.75 c 11.56701,-13.87128 1.69405,-34.93075 -16.36718,-34.92188 H 407.34375 c -9.25887,-0.0111 -16.41288,-8.11619 -15.27344,-17.30468 z"
       style="display:inline;fill:#b380ff"
       id="path21" />
    <path
       d="m 816.17187,-406.44531 c -0.77551,0.0122 -1.56342,0 -2.34375,0 h -41.60156 l -9.57031,76.05469 c -1.38448,11.03358 7.20022,20.8046 18.32031,20.82031 h 96.91406 c 0.079,-0.002 0.15534,-0.002 0.23438,0 5.10361,0.17276 7.76192,6.15568 4.49219,10.07812 L 708.28125,-90.195312 c -5.82088,6.964725 -17.12848,1.917421 -15.85938,-7.070313 L 711.5625,-232.8125 c 1.39205,-9.80606 -6.22844,-18.56084 -16.13281,-18.55469 h -82.07032 c -4.74147,0.008 -7.53833,-5.31736 -4.84375,-9.21875 l 33.86719,-48.98437 66.95313,-96.875 h -53.32032 l -63.82812,92.1875 -47.53906,68.71094 c -11.08963,16.00354 0.37345,37.88035 19.84375,37.85156 h 84.92187 c 7.6803,-0.004 13.58201,6.81036 12.5,14.41406 L 637.77344,-24.375 c -1.55243,10.767465 6.81651,20.4023925 17.69531,20.390625 h 31.79687 c 3.69077,0.00194 7.20769,-1.6176861 9.57032,-4.453125 l 250.89843,-301.13281 7.30469,-8.75 c 11.56701,-13.87128 1.69404,-34.93075 -16.36719,-34.92188 H 826.95312 c -9.25887,-0.0111 -16.41287,-8.11619 -15.27343,-17.30468 z"
       style="display:inline;fill:#b380ff"
       id="path17" />
    <path
       d="m 352.85156,-408.4375 9.6875,-77.10937 c 0.59314,-4.67805 -3.01949,-8.82984 -7.73437,-8.90625 -2.64634,-0.0412 -5.1384,1.25848 -6.64063,3.4375 l -46.40625,67.14843 c 15.92911,7.69966 32.96591,12.83283 51.09375,15.42969 z"
       style="display:inline;fill:#b380ff"
       id="path24" />
    <path
       d="m 352.85156,-408.4375 c -18.12784,-2.59686 -35.16464,-7.73003 -51.09375,-15.42969 l -78.98437,114.29688 -33.90625,48.98437 c -2.69459,3.90139 0.10228,9.22676 4.84375,9.21875 h 82.10937 c 9.90438,-0.006 17.52487,8.74863 16.13281,18.55469 L 272.8125,-97.265625 c -1.26911,8.987734 10.0385,14.035038 15.85937,7.070313 L 463.00781,-299.49219 c 3.26973,-3.92244 0.57236,-9.90536 -4.53125,-10.07812 -0.079,-0.002 -0.15533,-0.002 -0.23437,0 h -96.875 c -11.1201,-0.0157 -19.7048,-9.78673 -18.32032,-20.82031 z"
       style="display:none;fill:#b380ff"
       id="path23" />
    <path
       d="m 396.5625,-406.44531 19.53125,-156.32813 c 1.54083,-12.36461 -8.12569,-23.28732 -20.58594,-23.28125 H 366.5625 c -3.63664,0.005 -7.02868,1.77759 -9.10156,4.76563 l -92.42188,133.51562 c 11.51723,9.65655 23.74311,17.63422 36.71875,23.90625 l 46.40625,-67.14843 c 1.50223,-2.17902 3.99429,-3.47875 6.64063,-3.4375 4.71488,0.0764 8.32751,4.2282 7.73437,8.90625 l -9.6875,77.10937 c 9.22116,1.32095 18.72537,1.99205 28.51563,1.99219 z"
       style="display:none;fill:#b380ff"
       id="path22" />
    <path
       d="m 772.22656,-406.44531 9.92188,-79.10156 c 0.59314,-4.67805 -2.98044,-8.82984 -7.69532,-8.90625 -2.64633,-0.0412 -5.1384,1.25848 -6.64062,3.4375 l -58.47656,84.57031 z"
       style="fill:#b380ff"
       id="path20" />
    <path
       d="m 772.22656,-406.44531 h -62.89062 l -66.95313,96.875 -33.86719,48.98437 c -2.69458,3.90139 0.10228,9.22676 4.84375,9.21875 h 82.07032 c 9.90437,-0.006 17.52486,8.74863 16.13281,18.55469 l -19.14063,135.546875 c -1.2691,8.987734 10.0385,14.035038 15.85938,7.070313 L 882.61719,-299.49219 c 3.26973,-3.92244 0.61142,-9.90536 -4.49219,-10.07812 -0.079,-0.002 -0.15533,-0.002 -0.23438,0 h -96.91406 c -11.12009,-0.0157 -19.70479,-9.78673 -18.32031,-20.82031 z"
       style="display:none;fill:#b380ff"
       id="path19" />
    <path
       d="m 816.17187,-406.44531 19.53125,-156.32813 c 1.54084,-12.36461 -8.12568,-23.28732 -20.58593,-23.28125 h -28.90625 c -3.63665,0.005 -7.06775,1.77759 -9.14063,4.76563 l -121.05469,174.84375 h 53.32032 l 58.47656,-84.57031 c 1.50222,-2.17902 3.99429,-3.47875 6.64062,-3.4375 4.71488,0.0764 8.28846,4.2282 7.69532,8.90625 l -9.92188,79.10156 h 41.60156 c 0.78033,0 1.56824,0.0122 2.34375,0 z"
       style="display:none;fill:#b380ff"
       id="path18" />
    <path
       d="m 580.3125,-960 c -48.93853,0 -92.90808,13.99939 -131.91406,42.03125 -5.57235,4.0046 -11.03662,8.31392 -16.40625,12.89063 h -0.0391 c -42.95639,36.61383 -69.62063,82.01125 -80,136.21093 -43.82126,8.07234 -80.29568,28.3994 -109.41406,60.97657 -29.11806,32.57763 -43.67127,72.24138 -43.67187,118.94531 0,50.74041 17.74321,93.83593 53.20312,129.29687 4.2108,4.2108 8.54261,8.16393 12.96875,11.875 l 92.42188,-133.51562 c 2.07288,-2.98804 5.46492,-4.76094 9.10156,-4.76563 h 28.94531 c 12.46025,-0.006 22.12677,10.91664 20.58594,23.28125 l -19.53125,156.32813 h 259.45312 l 121.05469,-174.84375 c 2.07288,-2.98804 5.50398,-4.76094 9.14063,-4.76563 h 28.90625 c 12.46025,-0.006 22.12677,10.91664 20.58593,23.28125 l -19.53125,156.32813 c 4.16701,-0.0657 8.2562,-0.32335 12.30469,-0.70313 33.61373,-3.15319 63.05501,-17.31354 88.28125,-42.53906 28.82981,-28.8298 43.24163,-63.14477 43.24219,-102.92969 0,-5.18936 -0.22712,-10.2958 -0.66406,-15.27343 -3.05861,-34.84361 -16.82019,-64.47577 -41.28907,-88.94532 -27.96491,-27.96491 -63.55246,-41.95258 -106.79687,-41.95312 v -20.78125 c 0,-66.30847 -22.48743,-122.92896 -67.46094,-169.92188 C 698.81462,-936.48471 644.31419,-959.99903 580.3125,-960 Z"
       style="fill:#b380ff"
       id="path16" />
  </g>
</svg>
