<?xml version="1.0" encoding="UTF-8" standalone="no"?>
<svg
   height="48px"
   viewBox="0 -960 960 960"
   width="48px"
   fill="#e3e3e3"
   version="1.1"
   id="svg1"
   sodipodi:docname="go_action_caller.svg"
   inkscape:version="1.4.3 (0d15f75042, 2025-12-25)"
   xmlns:inkscape="http://www.inkscape.org/namespaces/inkscape"
   xmlns:sodipodi="http://sodipodi.sourceforge.net/DTD/sodipodi-0.dtd"
   xmlns="http://www.w3.org/2000/svg"
   xmlns:svg="http://www.w3.org/2000/svg">
  <defs
     id="defs1">
    <inkscape:path-effect
       effect="fillet_chamfer"
       id="path-effect1"
       is_visible="false"
       lpeversion="1"
       nodesatellites_param="F,1,0,1,0,0.11,0,1 @ F,1,0,1,0,0.11,0,1 @ F,1,0,1,0,0.11,0,1 @ F,1,0,1,0,0.11,0,1 @ F,1,0,1,0,0.11,0,1 @ F,1,0,1,0,0.11,0,1 | F,1,0,1,0,0.11,0,1 @ F,1,0,1,0,0.11,0,1 @ F,1,0,1,0,0.11,0,1 @ F,1,0,1,0,0.11,0,1 @ F,1,0,1,0,0.11,0,1 @ F,1,0,1,0,0.11,0,1 @ F,1,0,1,0,0.11,0,1 @ F,1,0,1,0,0.11,0,1 | "
       radius="10"
       unit="px"
       method="auto"
       mode="F"
       chamfer_steps="1"
       flexible="true"
       use_knot_distance="true"
       apply_no_radius="true"
       apply_with_radius="true"
       only_selected="false"
       hide_knots="false" />
    <inkscape:path-effect
       effect="fill_between_many"
       method="originald"
       linkedpaths="#path1-5,0,1|"
       id="path-effect2" />
  </defs>
  <sodipodi:namedview
     id="namedview1"
     pagecolor="#505050"
     bordercolor="#ffffff"
     borderopacity="1"
     inkscape:showpageshadow="0"
     inkscape:pageopacity="0"
     inkscape:pagecheckerboard="1"
     inkscape:deskcolor="#505050"
     inkscape:zoom="3.8802084"
     inkscape:cx="18.169127"
     inkscape:cy="24.869798"
     inkscape:window-width="1600"
     inkscape:window-height="996"
     inkscape:window-x="0"
     inkscape:window-y="0"
     inkscape:window-maximized="1"
     inkscape:current-layer="layer1" />
  <g
     inkscape:groupmode="layer"
     id="layer1"
     inkscape:label="Layer 1"
     style="display:inline">
    <path
       d="m 326.32812,-473.94531 -131.40625,190.11719 h 80 l -18.71093,132.46093 144.92187,-174.02343 h -93.51562 z"
       style="display:inline;fill:#b380ff"
       id="path11" />
    <path
       d="m 473.59375,-721.09375 c -21.45782,1.20426 -42.69102,5.52421 -63.71094,12.96875 l 66.99219,67.03125 c 22.77154,-1.75167 44.45709,1.29723 65.03906,9.17969 20.58198,7.88247 38.76634,19.70383 54.53125,35.46875 15.76492,15.76492 27.36015,33.94926 34.80469,54.53125 7.44461,20.58197 10.30641,41.81522 8.55469,63.71094 l 65.66406,66.99218 c 14.88915,-42.03978 17.5248,-84.95854 7.89062,-128.75 -9.63405,-43.79144 -30.22798,-81.4389 -61.75781,-112.96875 -31.52983,-31.52982 -69.17726,-52.34985 -112.96875,-62.42187 -21.89571,-5.03602 -43.58124,-6.94645 -65.03906,-5.74219 z"
       style="display:inline;fill:#b380ff"
       id="path9" />
    <path
       d="m 189.17969,-783.00781 v 295.625 l -166.83594,168.125 C 7.4546573,-304.36872 0,-285.95823 0,-264.0625 c 0,21.89573 7.4546573,40.30623 22.34375,55.19531 L 207.57812,-22.34375 C 222.46723,-7.4546653 241.0648,0 263.39844,0 c 22.33364,0 40.97028,-7.4546653 55.85937,-22.34375 l 168.125,-168.16406 h 295.625 z M 322.1875,-522.77344 H 363.75 l -20.78125,166.21094 h 124.64844 l -207.77344,249.375 h -41.5625 L 239.0625,-252.65625 H 135.19531 Z"
       style="display:inline;fill:#b380ff"
       id="path8"
       sodipodi:insensitive="true" />
    <path
       d="m 496.13281,-959.80469 c -93.73428,-2.53852 -181.59427,22.22406 -263.59375,74.33594 l 57.8125,57.8125 c 77.07294,-43.79143 159.18306,-59.97952 246.32813,-48.59375 87.14488,11.38577 162.21373,48.58096 225.27343,111.64063 63.05968,63.05971 100.06777,137.94136 111.01563,224.64843 10.94792,86.70708 -5.01408,169.04341 -47.92969,246.99219 l 57.8125,57.8125 c 59.5565,-93.71371 83.42525,-195.09991 71.60156,-304.14062 -11.82373,-109.0407 -57.1519,-202.97225 -135.97656,-281.79688 -78.82457,-78.82463 -172.75621,-124.15285 -281.79687,-135.97656 -13.6301,-1.47796 -27.15627,-2.37173 -40.54688,-2.73438 z"
       style="display:inline;fill:#b380ff"
       id="path7" />
    <path
       d="M 322.1875,-522.77344 135.19531,-252.65625 H 239.0625 l -20.78125,145.46875 h 41.5625 l 207.77344,-249.375 H 342.96875 L 363.75,-522.77344 Z m 4.14062,48.82813 -18.71093,148.55469 h 93.51562 l -144.92187,174.02343 18.71093,-132.46093 h -80 z"
       style="display:none;fill:#ffffff"
       id="path10" />
  </g>
</svg>
