<?xml version="1.0" encoding="UTF-8" standalone="no"?>
<svg
   height="48px"
   viewBox="0 -960 960 960"
   width="48px"
   fill="#e3e3e3"
   version="1.1"
   id="svg1"
   sodipodi:docname="go_action_sequence.svg"
   inkscape:version="1.4.3 (0d15f75042, 2025-12-25)"
   xmlns:inkscape="http://www.inkscape.org/namespaces/inkscape"
   xmlns:sodipodi="http://sodipodi.sourceforge.net/DTD/sodipodi-0.dtd"
   xmlns="http://www.w3.org/2000/svg"
   xmlns:svg="http://www.w3.org/2000/svg">
  <defs
     id="defs1">
    <inkscape:path-effect
       effect="fill_between_many"
       id="path-effect27"
       is_visible="true"
       lpeversion="1.2"
       linkedpaths=""
       method="d"
       join="true"
       close="true"
       autoreverse="false" />
    <inkscape:path-effect
       effect="fill_between_many"
       id="path-effect26"
       is_visible="true"
       lpeversion="1.2"
       linkedpaths=""
       method="bsplinespiro"
       join="true"
       close="true"
       autoreverse="true" />
    <inkscape:path-effect
       effect="offset"
       id="path-effect25"
       is_visible="true"
       lpeversion="1.3"
       linejoin_type="miter"
       unit="px"
       offset="0.666142"
       miter_limit="4"
       attempt_force_join="true"
       update_on_knot_move="true" />
    <inkscape:path-effect
       effect="interpolate"
       id="path-effect24"
       is_visible="true"
       lpeversion="1"
       trajectory="M 473.5,-475.5 480,-480"
       equidistant_spacing="true"
       steps="3" />
    <inkscape:path-effect
       effect="knot"
       id="path-effect23"
       is_visible="true"
       lpeversion="1"
       switcher_size="16.1"
       interruption_width="3.6"
       prop_to_stroke_width="true"
       add_stroke_width="inkscape_1.0_and_up"
       both="true"
       inverse_width="false"
       add_other_stroke_width="inkscape_1.0_and_up"
       crossing_points_vector="" />
    <inkscape:path-effect
       effect="offset"
       id="path-effect22"
       is_visible="true"
       lpeversion="1.3"
       linejoin_type="miter"
       unit="px"
       offset="-1.433858"
       miter_limit="3.9"
       attempt_force_join="false"
       update_on_knot_move="true" />
    <inkscape:path-effect
       effect="tiling"
       id="path-effect21"
       is_visible="true"
       lpeversion="1.3.1"
       unit="px"
       seed="1;1"
       lpesatellites=""
       num_rows="3"
       num_cols="3"
       gapx="0"
       gapy="0"
       offset="80"
       offset_type="false"
       scale="0"
       rotate="0"
       mirrorrowsx="false"
       mirrorrowsy="false"
       mirrorcolsx="false"
       mirrorcolsy="false"
       mirrortrans="false"
       shrink_interp="false"
       split_items="false"
       link_styles="false"
       interpolate_scalex="false"
       interpolate_scaley="true"
       interpolate_rotatex="false"
       interpolate_rotatey="true"
       random_scale="false"
       random_rotate="false"
       random_gap_y="false"
       random_gap_x="false"
       transformorigin="matrix(0.56751678,0,0,0.56751678,-109.59807,-460.58524)" />
    <inkscape:path-effect
       effect="fillet_chamfer"
       id="path-effect20"
       is_visible="true"
       lpeversion="1"
       nodesatellites_param="F,0,0,1,0,10,0,1 @ F,0,0,1,0,10,0,1 @ F,0,0,1,0,10,0,1 @ F,0,0,1,0,10,0,1 @ F,0,0,1,0,10,0,1 @ F,0,0,1,0,10,0,1 @ F,0,0,1,0,10,0,1 @ F,0,0,1,0,10,0,1 @ F,0,0,1,0,10,0,1 @ F,0,0,1,0,10,0,1 @ F,0,0,1,0,10,0,1"
       radius="0.5"
       unit="px"
       method="auto"
       mode="F"
       chamfer_steps="2"
       flexible="false"
       use_knot_distance="true"
       apply_no_radius="true"
       apply_with_radius="true"
       only_selected="false"
       hide_knots="false" />
    <inkscape:path-effect
       effect="tiling"
       id="path-effect19"
       is_visible="false"
       lpeversion="1.3.1"
       unit="px"
       seed="1;1"
       lpesatellites=""
       num_rows="3"
       num_cols="1"
       gapx="0"
       gapy="0"
       offset="0"
       offset_type="false"
       scale="0"
       rotate="0"
       mirrorrowsx="false"
       mirrorrowsy="false"
       mirrorcolsx="false"
       mirrorcolsy="false"
       mirrortrans="false"
       shrink_interp="false"
       split_items="false"
       link_styles="false"
       interpolate_scalex="false"
       interpolate_scaley="false"
       interpolate_rotatex="false"
       interpolate_rotatey="true"
       random_scale="false"
       random_rotate="false"
       random_gap_y="false"
       random_gap_x="false"
       transformorigin="matrix(0.526191,0,0,0.526191,539.0472,42.09528)" />
    <inkscape:path-effect
       effect="vonkoch"
       id="path-effect18"
       is_visible="true"
       lpeversion="1"
       ref_path="M 160,-480 H 800"
       generator="m 160,-80 h 213.33333 m 213.33334,0 H 800"
       similar_only="false"
       nbgenerations="0"
       drawall="true"
       maxComplexity="1000" />
    <inkscape:path-effect
       effect="tiling"
       id="path-effect11"
       is_visible="true"
       lpeversion="1.3.1"
       unit="px"
       seed="1;1644450110"
       lpesatellites=""
       num_rows="2"
       num_cols="1"
       gapx="0"
       gapy="0"
       offset="0"
       offset_type="false"
       scale="-15"
       rotate="0"
       mirrorrowsx="true"
       mirrorrowsy="true"
       mirrorcolsx="true"
       mirrorcolsy="true"
       mirrortrans="false"
       shrink_interp="false"
       split_items="false"
       link_styles="true"
       interpolate_scalex="true"
       interpolate_scaley="true"
       interpolate_rotatex="false"
       interpolate_rotatey="true"
       random_scale="false"
       random_rotate="false"
       random_gap_y="false"
       random_gap_x="false"
       transformorigin="matrix(0.526191,0,0,0.526191,226.61809,-227.42832)" />
    <inkscape:path-effect
       effect="vonkoch"
       id="path-effect10"
       is_visible="true"
       lpeversion="1"
       ref_path="m -430.67648,-1392.2163 h 640"
       generator="m -430.67648,-1392.2163 h 640"
       similar_only="true"
       nbgenerations="1"
       drawall="true"
       maxComplexity="1000" />
    <inkscape:path-effect
       effect="knot"
       id="path-effect9"
       is_visible="true"
       lpeversion="1"
       switcher_size="15.3"
       interruption_width="0.1"
       prop_to_stroke_width="true"
       add_stroke_width="inkscape_1.0_and_up"
       both="false"
       inverse_width="false"
       add_other_stroke_width="inkscape_1.0_and_up"
       crossing_points_vector="" />
    <inkscape:path-effect
       effect="fill_between_many"
       id="path-effect8"
       is_visible="true"
       lpeversion="1.2"
       linkedpaths="#path1,1,1"
       method="originald"
       join="true"
       close="false"
       autoreverse="false" />
    <inkscape:path-effect
       effect="fill_between_many"
       id="path-effect7"
       is_visible="true"
       lpeversion="1.2"
       linkedpaths="#path1,0,0|#path1,0,1"
       method="originald"
       join="true"
       close="true"
       autoreverse="true" />
    <inkscape:path-effect
       effect="offset"
       id="path-effect6"
       is_visible="true"
       lpeversion="1.3"
       linejoin_type="miter"
       unit="px"
       offset="0.733858"
       miter_limit="4"
       attempt_force_join="false"
       update_on_knot_move="true" />
    <inkscape:path-effect
       effect="fill_between_many"
       id="path-effect5"
       is_visible="true"
       lpeversion="1.2"
       linkedpaths=""
       method="originald"
       join="true"
       close="true"
       autoreverse="true" />
    <inkscape:path-effect
       effect="fillet_chamfer"
       id="path-effect3"
       is_visible="true"
       lpeversion="1"
       nodesatellites_param="F,1,0,1,0,0.11,0,1 @ F,1,0,1,0,0.11,0,1 @ F,1,0,1,0,0.11,0,1 @ F,1,0,1,0,0.11,0,1 @ F,1,0,1,0,0.11,0,1 @ F,1,0,1,0,0.11,0,1 | F,1,0,1,0,0.11,0,1 @ F,1,0,1,0,0.11,0,1 @ F,1,0,1,0,0.11,0,1 @ F,1,0,1,0,0.11,0,1 @ F,1,0,1,0,0.11,0,1 @ F,1,0,1,0,0.11,0,1 @ F,1,0,1,0,0.11,0,1 @ F,1,0,1,0,0.11,0,1 | "
       radius="10"
       unit="px"
       method="auto"
       mode="F"
       chamfer_steps="1"
       flexible="true"
       use_knot_distance="true"
       apply_no_radius="true"
       apply_with_radius="true"
       only_selected="false"
       hide_knots="false" />
    <inkscape:path-effect
       effect="fillet_chamfer"
       id="path-effect1"
       is_visible="true"
       lpeversion="1"
       nodesatellites_param="F,1,0,1,0,0.1,0,1 @ F,1,0,1,0,0.1,0,1 @ F,1,0,1,0,0.1,0,1 @ F,1,0,1,0,0.1,0,1 @ F,1,0,1,0,0.1,0,1 @ F,1,0,1,0,0.1,0,1 | F,1,0,1,0,0.1,0,1 @ F,1,0,1,0,0.1,0,1 @ F,1,0,1,0,0.1,0,1 @ F,1,0,1,0,0.1,0,1 @ F,1,0,1,0,0.1,0,1 @ F,1,0,1,0,0.1,0,1 @ F,1,0,1,0,0.1,0,1 @ F,1,0,1,0,0.1,0,1 | "
       radius="10"
       unit="px"
       method="auto"
       mode="F"
       chamfer_steps="1"
       flexible="true"
       use_knot_distance="true"
       apply_no_radius="true"
       apply_with_radius="true"
       only_selected="false"
       hide_knots="false" />
    <inkscape:path-effect
       effect="fill_between_many"
       method="originald"
       linkedpaths="#path1-6,0,1|"
       id="path-effect28" />
    <inkscape:path-effect
       effect="fill_between_many"
       method="originald"
       linkedpaths="#path1-6,0,1|"
       id="path-effect2" />
  </defs>
  <sodipodi:namedview
     id="namedview1"
     pagecolor="#505050"
     bordercolor="#ffffff"
     borderopacity="1"
     inkscape:showpageshadow="0"
     inkscape:pageopacity="0"
     inkscape:pagecheckerboard="1"
     inkscape:deskcolor="#505050"
     inkscape:zoom="5.4874433"
     inkscape:cx="23.417098"
     inkscape:cy="27.79072"
     inkscape:window-width="1600"
     inkscape:window-height="996"
     inkscape:window-x="0"
     inkscape:window-y="0"
     inkscape:window-maximized="1"
     inkscape:current-layer="layer1" />
  <g
     inkscape:groupmode="layer"
     id="layer1"
     inkscape:label="Layer 1">
    <path
       d="m 316.52344,-366.09375 h 159.80468 a 21.328885,21.328885 0 0 1 -21.13281,-23.98437 l 22.5,-178.90625 a 9.1266291,9.1266291 0 0 0 -16.5625,-6.32813 z"
       style="display:inline;fill:#b380ff"
       id="path9" />
    <path
       d="m 550.78125,-960 c -68.66995,0 -127.13606,25.2052 -175.39063,75.625 -48.25454,50.41983 -72.38281,111.1992 -72.38281,182.34375 v 22.26563 c -46.39862,0 -84.60493,15.03462 -114.60937,45.03906 -30.00442,30.00443 -45,67.2542 -45,111.79687 0,42.68672 15.43478,79.49729 46.36718,110.42969 20.40984,20.40983 43.37875,34.07035 68.90625,41.01563 L 471.83594,-679.375 a 12.808827,12.808827 0 0 1 10.50781,-5.50781 h 33.35937 a 23.882616,23.882616 0 0 1 23.71094,26.83594 l -27.69531,221.64062 a 17.773643,17.773643 0 0 0 17.61719,19.96094 H 658.125 a 24.550492,24.550492 0 0 1 18.86719,40.27344 l -8.39844,10.07812 h 95.58594 c 6.80513,0 13.49009,-0.30396 20.03906,-0.89844 45.84279,-4.16137 85.41993,-22.88086 118.71094,-56.17187 38.04686,-38.04686 57.07031,-84.30897 57.07031,-138.75 0,-6.26382 -0.25404,-12.41051 -0.74219,-18.4375 -3.41706,-42.18892 -18.79629,-78.55621 -46.13281,-109.14063 -31.24173,-34.95361 -70.36555,-56.76861 -117.38281,-65.42968 -11.13568,-58.15295 -39.73104,-106.84862 -85.82032,-146.13282 C 663.83258,-940.33879 610.79012,-960 550.78125,-960 Z"
       style="display:inline;fill:#b380ff"
       id="path5" />
    <path
       d="m 588.32031,-366.09375 a 7.075283,7.075283 0 0 0 -0.27344,0 H 476.32812 316.52344 l -39.0625,56.48438 a 6.7748546,6.7748546 0 0 0 5.58593,10.625 h 94.64844 a 18.768384,18.768384 0 0 1 18.59375,21.40625 l -22.07031,156.28906 a 10.401967,10.401967 0 0 0 18.28125,8.125 l 201.01562,-241.32813 a 7.075283,7.075283 0 0 0 -5.19531,-11.60156 z"
       style="display:none;fill:#b380ff"
       id="path8" />
    <path
       d="m 668.59375,-366.09375 8.39844,-10.07812 A 24.550492,24.550492 0 0 0 658.125,-416.44531 H 529.33594 a 17.773643,17.773643 0 0 1 -17.61719,-19.96094 l 27.69531,-221.64062 a 23.882616,23.882616 0 0 0 -23.71094,-26.83594 h -33.35937 a 12.808827,12.808827 0 0 0 -10.50781,5.50781 l -213.16407,307.89063 c 13.16108,3.58073 27.00228,5.39062 41.52344,5.39062 h 16.32813 L 461.13281,-575.3125 a 9.1266291,9.1266291 0 0 1 16.5625,6.32813 l -22.5,178.90625 a 21.328885,21.328885 0 0 0 21.13281,23.98437 h 111.71875 a 7.075283,7.075283 0 0 1 0.27344,0 z"
       style="display:none;fill:#b380ff"
       id="path7" />
    <path
       d="m 668.59375,-366.09375 h -80.27344 a 7.075283,7.075283 0 0 1 5.19531,11.60156 L 392.5,-113.16406 a 10.401967,10.401967 0 0 1 -18.28125,-8.125 l 22.07031,-156.28906 a 18.768384,18.768384 0 0 0 -18.59375,-21.40625 h -94.64844 a 6.7748546,6.7748546 0 0 1 -5.58593,-10.625 l 39.0625,-56.48438 h -16.32813 c -14.52116,0 -28.36236,-1.80989 -41.52344,-5.39062 l -54.84375,79.21875 a 27.799304,27.799304 0 0 0 22.89063,43.63281 h 97.92969 a 14.551531,14.551531 0 0 1 14.41406,16.60156 L 311.21094,-37.265625 A 20.578972,20.578972 0 0 0 331.60156,-13.75 h 36.67969 a 14.328739,14.328739 0 0 0 11.01562,-5.15625 z"
       style="display:inline;fill:#b380ff"
       id="path6" />
  </g>
</svg>
